<svg xmlns="http://www.w3.org/2000/svg" xmlns:xlink="http://www.w3.org/1999/xlink" width="500" zoomAndPan="magnify" viewBox="0 0 375 374.999991" height="500" preserveAspectRatio="xMidYMid meet" version="1.0"><defs><g/><clipPath id="d71a28415a"><path d="M 0 1.4375 L 303 1.4375 L 303 374.9375 L 0 374.9375 Z M 0 1.4375 " clip-rule="nonzero"/></clipPath><clipPath id="8f9818e8c2"><path d="M 124 39 L 369.25 39 L 369.25 338 L 124 338 Z M 124 39 " clip-rule="nonzero"/></clipPath><clipPath id="bbd3ce541e"><path d="M 0 141.09375 L 373.160156 141.09375 L 373.160156 245.785156 L 0 245.785156 Z M 0 141.09375 " clip-rule="nonzero"/></clipPath></defs><g clip-path="url(#d71a28415a)"><path fill="#163b6d" d="M 221.695312 352.910156 C 130.675781 352.910156 56.894531 279.164062 56.894531 188.1875 C 56.894531 97.214844 130.675781 23.46875 221.695312 23.46875 C 251.234375 23.46875 278.929688 31.273438 302.902344 44.875 C 270.492188 17.8125 228.777344 1.507812 183.242188 1.507812 C 80.089844 1.507812 -3.53125 85.089844 -3.53125 188.1875 C -3.53125 291.289062 80.089844 374.871094 183.242188 374.871094 C 228.777344 374.871094 270.488281 358.566406 302.902344 331.503906 C 278.929688 345.105469 251.234375 352.910156 221.695312 352.910156 " fill-opacity="1" fill-rule="nonzero"/></g><g clip-path="url(#8f9818e8c2)"><path fill="#4f4c4c" d="M 189.3125 319.734375 C 262 319.734375 320.925781 260.839844 320.925781 188.1875 C 320.925781 115.539062 262 56.644531 189.3125 56.644531 C 165.730469 56.644531 143.613281 62.878906 124.46875 73.738281 C 150.347656 52.128906 183.65625 39.109375 220.023438 39.109375 C 302.402344 39.109375 369.179688 105.851562 369.179688 188.1875 C 369.179688 270.527344 302.402344 337.269531 220.023438 337.269531 C 183.65625 337.269531 150.347656 324.25 124.46875 302.640625 C 143.613281 313.5 165.730469 319.734375 189.3125 319.734375 " fill-opacity="1" fill-rule="nonzero"/></g><g clip-path="url(#bbd3ce541e)"><path fill="#ffffff" d="M -7.527344 141.09375 L 373.199219 141.09375 L 373.199219 245.785156 L -7.527344 245.785156 Z M -7.527344 141.09375 " fill-opacity="1" fill-rule="nonzero"/></g><g fill="#163b6d" fill-opacity="1"><g transform="translate(13.109864, 214.813901)"><g><path d="M 19.84375 -43.953125 C 17.488281 -43.953125 15.160156 -43.617188 12.859375 -42.953125 C 10.554688 -42.296875 8.300781 -41.503906 6.09375 -40.578125 L 2.578125 -49.53125 C 5.171875 -50.664062 7.910156 -51.5625 10.796875 -52.21875 C 13.691406 -52.882812 16.78125 -53.21875 20.0625 -53.21875 C 27.757812 -53.21875 33.75 -50.851562 38.03125 -46.125 C 42.320312 -41.394531 44.46875 -34.742188 44.46875 -26.171875 C 44.46875 -20.773438 43.5625 -16.054688 41.75 -12.015625 C 39.9375 -7.972656 37.15625 -4.835938 33.40625 -2.609375 C 29.65625 -0.378906 24.863281 0.734375 19.03125 0.734375 C 16.039062 0.734375 13.332031 0.507812 10.90625 0.0625 C 8.488281 -0.375 6.03125 -1.054688 3.53125 -1.984375 L 3.53125 -11.3125 C 6.320312 -10.4375 8.90625 -9.753906 11.28125 -9.265625 C 13.65625 -8.773438 16.019531 -8.53125 18.375 -8.53125 C 22.882812 -8.53125 26.363281 -9.644531 28.8125 -11.875 C 31.257812 -14.101562 32.582031 -17.445312 32.78125 -21.90625 L 10 -21.90625 L 10 -31.015625 L 32.703125 -31.015625 C 32.554688 -35.085938 31.332031 -38.257812 29.03125 -40.53125 C 26.726562 -42.8125 23.664062 -43.953125 19.84375 -43.953125 Z M 19.84375 -43.953125 "/></g></g></g><g fill="#163b6d" fill-opacity="1"><g transform="translate(61.832567, 214.813901)"><g><path d="M 49.390625 0 L 36.75 0 L 17.71875 -26.609375 L 17.71875 0 L 6.609375 0 L 6.609375 -52.484375 L 17.71875 -52.484375 L 17.71875 -27.046875 L 36.53125 -52.484375 L 48.359375 -52.484375 L 29.25 -27.265625 Z M 49.390625 0 "/></g></g></g><g fill="#163b6d" fill-opacity="1"><g transform="translate(111.216658, 214.813901)"><g><path d="M 54.25 -26.3125 C 54.25 -20.875 53.351562 -16.132812 51.5625 -12.09375 C 49.769531 -8.050781 47.023438 -4.898438 43.328125 -2.640625 C 39.628906 -0.390625 34.9375 0.734375 29.25 0.734375 C 23.570312 0.734375 18.878906 -0.390625 15.171875 -2.640625 C 11.472656 -4.898438 8.726562 -8.0625 6.9375 -12.125 C 5.15625 -16.195312 4.265625 -20.953125 4.265625 -26.390625 C 4.265625 -31.828125 5.15625 -36.550781 6.9375 -40.5625 C 8.726562 -44.582031 11.472656 -47.707031 15.171875 -49.9375 C 18.878906 -52.164062 23.597656 -53.28125 29.328125 -53.28125 C 35.015625 -53.28125 39.691406 -52.164062 43.359375 -49.9375 C 47.035156 -47.707031 49.769531 -44.570312 51.5625 -40.53125 C 53.351562 -36.488281 54.25 -31.75 54.25 -26.3125 Z M 15.953125 -26.3125 C 15.953125 -20.820312 17.003906 -16.492188 19.109375 -13.328125 C 21.210938 -10.171875 24.59375 -8.59375 29.25 -8.59375 C 34 -8.59375 37.40625 -10.171875 39.46875 -13.328125 C 41.53125 -16.492188 42.5625 -20.820312 42.5625 -26.3125 C 42.5625 -31.800781 41.53125 -36.125 39.46875 -39.28125 C 37.40625 -42.445312 34.023438 -44.03125 29.328125 -44.03125 C 24.617188 -44.03125 21.210938 -42.445312 19.109375 -39.28125 C 17.003906 -36.125 15.953125 -31.800781 15.953125 -26.3125 Z M 15.953125 -26.3125 "/></g></g></g><g fill="#163b6d" fill-opacity="1"><g transform="translate(169.713289, 214.813901)"><g><path d="M 28.890625 -43.953125 C 24.617188 -43.953125 21.359375 -42.359375 19.109375 -39.171875 C 16.859375 -35.984375 15.734375 -31.625 15.734375 -26.09375 C 15.734375 -20.507812 16.769531 -16.1875 18.84375 -13.125 C 20.925781 -10.0625 24.273438 -8.53125 28.890625 -8.53125 C 30.992188 -8.53125 33.125 -8.773438 35.28125 -9.265625 C 37.4375 -9.753906 39.765625 -10.4375 42.265625 -11.3125 L 42.265625 -1.984375 C 39.960938 -1.054688 37.679688 -0.375 35.421875 0.0625 C 33.171875 0.507812 30.648438 0.734375 27.859375 0.734375 C 22.421875 0.734375 17.960938 -0.378906 14.484375 -2.609375 C 11.003906 -4.835938 8.429688 -7.972656 6.765625 -12.015625 C 5.097656 -16.054688 4.265625 -20.773438 4.265625 -26.171875 C 4.265625 -31.460938 5.21875 -36.140625 7.125 -40.203125 C 9.039062 -44.273438 11.820312 -47.460938 15.46875 -49.765625 C 19.125 -52.066406 23.597656 -53.21875 28.890625 -53.21875 C 31.484375 -53.21875 34.085938 -52.882812 36.703125 -52.21875 C 39.328125 -51.5625 41.84375 -50.664062 44.25 -49.53125 L 40.640625 -40.5 C 38.679688 -41.425781 36.707031 -42.234375 34.71875 -42.921875 C 32.738281 -43.609375 30.796875 -43.953125 28.890625 -43.953125 Z M 28.890625 -43.953125 "/></g></g></g><g fill="#163b6d" fill-opacity="1"><g transform="translate(216.525286, 214.813901)"><g><path d="M 6.609375 0 L 6.609375 -52.484375 L 39.765625 -52.484375 L 39.765625 -43.296875 L 17.71875 -43.296875 L 17.71875 -32.34375 L 22.125 -32.34375 C 27.070312 -32.34375 31.125 -31.65625 34.28125 -30.28125 C 37.445312 -28.90625 39.785156 -27.015625 41.296875 -24.609375 C 42.816406 -22.210938 43.578125 -19.472656 43.578125 -16.390625 C 43.578125 -11.191406 41.847656 -7.160156 38.390625 -4.296875 C 34.941406 -1.429688 29.445312 0 21.90625 0 Z M 17.71875 -9.109375 L 21.46875 -9.109375 C 24.84375 -9.109375 27.5 -9.644531 29.4375 -10.71875 C 31.375 -11.800781 32.34375 -13.691406 32.34375 -16.390625 C 32.34375 -19.179688 31.285156 -21.015625 29.171875 -21.890625 C 27.066406 -22.773438 24.203125 -23.21875 20.578125 -23.21875 L 17.71875 -23.21875 Z M 17.71875 -9.109375 "/></g></g></g><g fill="#163b6d" fill-opacity="1"><g transform="translate(263.410766, 214.813901)"><g><path d="M 54.25 -26.3125 C 54.25 -20.875 53.351562 -16.132812 51.5625 -12.09375 C 49.769531 -8.050781 47.023438 -4.898438 43.328125 -2.640625 C 39.628906 -0.390625 34.9375 0.734375 29.25 0.734375 C 23.570312 0.734375 18.878906 -0.390625 15.171875 -2.640625 C 11.472656 -4.898438 8.726562 -8.0625 6.9375 -12.125 C 5.15625 -16.195312 4.265625 -20.953125 4.265625 -26.390625 C 4.265625 -31.828125 5.15625 -36.550781 6.9375 -40.5625 C 8.726562 -44.582031 11.472656 -47.707031 15.171875 -49.9375 C 18.878906 -52.164062 23.597656 -53.28125 29.328125 -53.28125 C 35.015625 -53.28125 39.691406 -52.164062 43.359375 -49.9375 C 47.035156 -47.707031 49.769531 -44.570312 51.5625 -40.53125 C 53.351562 -36.488281 54.25 -31.75 54.25 -26.3125 Z M 15.953125 -26.3125 C 15.953125 -20.820312 17.003906 -16.492188 19.109375 -13.328125 C 21.210938 -10.171875 24.59375 -8.59375 29.25 -8.59375 C 34 -8.59375 37.40625 -10.171875 39.46875 -13.328125 C 41.53125 -16.492188 42.5625 -20.820312 42.5625 -26.3125 C 42.5625 -31.800781 41.53125 -36.125 39.46875 -39.28125 C 37.40625 -42.445312 34.023438 -44.03125 29.328125 -44.03125 C 24.617188 -44.03125 21.210938 -42.445312 19.109375 -39.28125 C 17.003906 -36.125 15.953125 -31.800781 15.953125 -26.3125 Z M 15.953125 -26.3125 "/></g></g></g><g fill="#163b6d" fill-opacity="1"><g transform="translate(321.907398, 214.813901)"><g><path d="M 23.375 -52.484375 C 30.132812 -52.484375 35.066406 -51.023438 38.171875 -48.109375 C 41.285156 -45.191406 42.84375 -41.1875 42.84375 -36.09375 C 42.84375 -33 42.207031 -30.128906 40.9375 -27.484375 C 39.664062 -24.835938 37.546875 -22.707031 34.578125 -21.09375 C 31.617188 -19.476562 27.585938 -18.671875 22.484375 -18.671875 L 17.71875 -18.671875 L 17.71875 0 L 6.609375 0 L 6.609375 -52.484375 Z M 22.78125 -43.359375 L 17.71875 -43.359375 L 17.71875 -27.78125 L 21.390625 -27.78125 C 24.523438 -27.78125 27.007812 -28.40625 28.84375 -29.65625 C 30.6875 -30.90625 31.609375 -32.925781 31.609375 -35.71875 C 31.609375 -40.8125 28.664062 -43.359375 22.78125 -43.359375 Z M 22.78125 -43.359375 "/></g></g></g><g fill="#4f4c4c" fill-opacity="1"><g transform="translate(136.562485, 270.282083)"><g><path d="M 15.265625 0 L 8.953125 0 L 8.953125 -24.609375 L 0.84375 -24.609375 L 0.84375 -29.875 L 23.390625 -29.875 L 23.390625 -24.609375 L 15.265625 -24.609375 Z M 15.265625 0 "/></g></g></g><g fill="#4f4c4c" fill-opacity="1"><g transform="translate(169.246938, 270.282083)"><g><path d="M 20.96875 0 L 3.765625 0 L 3.765625 -29.875 L 20.96875 -29.875 L 20.96875 -24.6875 L 10.078125 -24.6875 L 10.078125 -18.125 L 20.203125 -18.125 L 20.203125 -12.9375 L 10.078125 -12.9375 L 10.078125 -5.234375 L 20.96875 -5.234375 Z M 20.96875 0 "/></g></g></g><g fill="#4f4c4c" fill-opacity="1"><g transform="translate(201.136289, 270.282083)"><g><path d="M 27.90625 0 L 20.671875 0 L 13.71875 -11.296875 L 6.78125 0 L 0 0 L 9.921875 -15.40625 L 0.625 -29.875 L 7.609375 -29.875 L 14.0625 -19.125 L 20.375 -29.875 L 27.203125 -29.875 L 17.828125 -15.0625 Z M 27.90625 0 "/></g></g></g></svg>